<svg width="102" height="42" viewBox="0 0 102 42" fill="none" xmlns="http://www.w3.org/2000/svg">
<circle cx="8.00003" cy="34.6154" r="2.85714" stroke="#E60010" stroke-opacity="0.8" stroke-width="0.178"/>
<ellipse cx="8.00002" cy="34.6154" rx="3.57143" ry="3.57143" stroke="#E60010" stroke-opacity="0.7" stroke-width="0.2106"/>
<ellipse cx="8.00001" cy="34.6154" rx="4.28571" ry="4.28571" stroke="#E60010" stroke-opacity="0.6" stroke-width="0.36556"/>
<circle cx="8" cy="34.6154" r="5" stroke="#E60010" stroke-opacity="0.5" stroke-width="0.31155"/>
<g filter="url(#filter0_dddddd_782_4)">
<path d="M10.1428 34.6154C10.1428 35.7989 9.18344 36.7582 7.99997 36.7582C6.81651 36.7582 5.85712 35.7989 5.85712 34.6154C5.85712 33.4319 6.81651 32.4725 7.99997 32.4725C9.18344 32.4725 10.1428 33.4319 10.1428 34.6154Z" fill="#E60010"/>
</g>
<path d="M8.58867 0.384644H19.1259C22.1281 0.384644 23.3447 1.7669 23.3447 4.39512V5.50482C23.3447 7.72421 22.4813 9.02859 20.4209 9.39849L23.7763 13.5258C23.8941 13.6621 23.8745 14.0125 23.5213 14.0125H20.99C20.6564 14.0125 20.5583 13.9346 20.4406 13.7594L17.3402 9.70998H11.0022V13.5842C11.0022 13.8762 10.8649 14.0125 10.5705 14.0125H8.45131C8.15698 14.0125 8 13.8762 8 13.5842V0.968695C8 0.579327 8.19622 0.384644 8.58867 0.384644ZM11.0022 3.28543V7.33485H18.5176C19.8519 7.33485 20.3424 6.77026 20.3424 5.60216V4.78449C20.3424 3.61639 19.8519 3.05181 18.5176 3.05181H11.2573C11.0807 3.05181 11.0022 3.12968 11.0022 3.28543Z" fill="white"/>
<path d="M34.4955 0.384644H35.6532C36.6539 0.384644 37.2622 0.696138 37.9098 1.86424L44.4048 13.5647C44.5421 13.8178 44.4833 14.0125 44.1693 14.0125H41.6773C41.4222 14.0125 41.3241 13.9541 41.2259 13.7594L39.8328 11.248H30.6103L29.2563 13.7594C29.1582 13.9541 29.0405 14.0125 28.805 14.0125H26.2541C25.9205 14.0125 25.8617 13.8178 25.999 13.5647L32.4352 1.86424C33.0827 0.696138 33.6714 0.384644 34.4955 0.384644ZM34.9272 3.28543L31.8465 8.98966H38.5966L35.4766 3.28543C35.4177 3.18809 35.3589 3.14915 35.2608 3.14915H35.143C35.0449 3.14915 34.9861 3.18809 34.9272 3.28543Z" fill="white"/>
<path d="M47.831 0.384644H57.0143C61.2723 0.384644 63.0187 2.07839 63.0187 5.87472V8.52242C63.0187 12.3187 61.2723 14.0125 57.0143 14.0125H47.831C47.4386 14.0125 47.2423 13.8178 47.2423 13.4284V0.968695C47.2423 0.579327 47.4386 0.384644 47.831 0.384644ZM50.2446 3.3633V11.0533C50.2446 11.2285 50.323 11.3064 50.4996 11.3064H56.9358C59.2512 11.3064 60.0165 10.5666 60.0165 8.26933V6.12781C60.0165 3.83054 59.2512 3.09074 56.9358 3.09074H50.4996C50.323 3.09074 50.2446 3.16862 50.2446 3.3633Z" fill="white"/>
<path d="M73.4121 0.384644H74.5698C75.5705 0.384644 76.1788 0.696138 76.8263 1.86424L83.3213 13.5647C83.4587 13.8178 83.3998 14.0125 83.0859 14.0125H80.5938C80.3387 14.0125 80.2406 13.9541 80.1425 13.7594L78.7493 11.248H69.5268L68.1729 13.7594C68.0748 13.9541 67.9571 14.0125 67.7216 14.0125H65.1707C64.8371 14.0125 64.7782 13.8178 64.9156 13.5647L71.3517 1.86424C71.9993 0.696138 72.5879 0.384644 73.4121 0.384644ZM73.8438 3.28543L70.7631 8.98966H77.5131L74.3932 3.28543C74.3343 3.18809 74.2754 3.14915 74.1773 3.14915H74.0596C73.9615 3.14915 73.9026 3.18809 73.8438 3.28543Z" fill="white"/>
<path d="M86.7476 0.384644H97.2848C100.287 0.384644 101.504 1.7669 101.504 4.39512V5.50482C101.504 7.72421 100.64 9.02859 98.5798 9.39849L101.935 13.5258C102.053 13.6621 102.033 14.0125 101.68 14.0125H99.1489C98.8153 14.0125 98.7172 13.9346 98.5994 13.7594L95.4991 9.70998H89.1611V13.5842C89.1611 13.8762 89.0238 14.0125 88.7294 14.0125H86.6102C86.3159 14.0125 86.1589 13.8762 86.1589 13.5842V0.968695C86.1589 0.579327 86.3551 0.384644 86.7476 0.384644ZM89.1611 3.28543V7.33485H96.6765C98.0108 7.33485 98.5013 6.77026 98.5013 5.60216V4.78449C98.5013 3.61639 98.0108 3.05181 96.6765 3.05181H89.4162C89.2396 3.05181 89.1611 3.12968 89.1611 3.28543Z" fill="white"/>
<path d="M26.4406 19.142H14.5832C9.85899 19.142 8.03479 20.8127 8.03479 25.2678V29.2588C8.03479 29.4764 8.01846 29.6665 8.02728 29.8709C8.06782 29.8699 8.10848 29.8694 8.14926 29.8694C10.8213 29.8694 13.0082 31.9567 13.0082 34.5059C13.0082 34.7778 12.9835 35.0442 12.9362 35.3032C13.4408 35.3582 13.9891 35.3846 14.5832 35.3846H24.0317C25.9027 35.3846 26.9317 34.4333 26.9317 31.8345V26.428C26.9317 25.9639 26.6978 25.7319 26.2301 25.7319H16.4776C16.1502 25.7319 15.9631 25.9175 15.9631 26.2656V28.0058C15.9631 28.3539 16.1502 28.5395 16.4776 28.5395H23.3301C23.5405 28.5395 23.6107 28.6323 23.6107 28.8412V30.7207C23.6107 31.7649 23.2599 32.1361 22.4413 32.1361H14.7235C12.3147 32.1361 11.613 31.4168 11.613 28.9572V25.6159C11.613 23.1563 12.3147 22.4601 14.7235 22.4601H26.4406C26.7914 22.4601 26.9551 22.2745 26.9551 21.9265V19.6525C26.9551 19.3044 26.7914 19.142 26.4406 19.142Z" fill="white"/>
<path fill-rule="evenodd" clip-rule="evenodd" d="M41.2038 19.142H39.8239C38.8417 19.142 38.14 19.5133 37.3683 20.9055L29.6972 34.851C29.5335 35.1526 29.6037 35.3846 30.0013 35.3846H33.0416C33.3223 35.3846 33.4626 35.315 33.5795 35.083L35.1933 32.0897H46.1853L47.8458 35.083C47.9627 35.315 48.0796 35.3846 48.3837 35.3846H51.3539C51.7281 35.3846 51.7982 35.1526 51.6345 34.851L43.8933 20.9055C43.1215 19.5133 42.3965 19.142 41.2038 19.142ZM36.6667 29.3981L40.3384 22.5994C40.4086 22.4833 40.4788 22.4369 40.5957 22.4369H40.736C40.853 22.4369 40.9231 22.4833 40.9933 22.5994L44.7119 29.3981H36.6667Z" fill="white"/>
<path d="M59.6472 19.142H57.098C55.4375 19.142 55.0165 19.7917 55.0165 21.5552V34.8742C55.0165 35.2222 55.2036 35.3846 55.5544 35.3846H57.9399C58.2907 35.3846 58.4545 35.2222 58.4545 34.8742V22.7618C58.4545 22.5994 58.5012 22.5298 58.6416 22.5298H58.852C59.0158 22.5298 59.1093 22.5762 59.1561 22.7154L63.8803 33.1107C64.6521 34.7813 65.3069 35.3846 66.8739 35.3846H67.9965C69.5634 35.3846 70.2183 34.7813 70.99 33.1107L75.7143 22.7154C75.761 22.5762 75.8546 22.5298 76.0183 22.5298H76.2288C76.3691 22.5298 76.4159 22.5994 76.4159 22.7618V34.8742C76.4159 35.2222 76.5796 35.3846 76.9304 35.3846H79.3159C79.6667 35.3846 79.8538 35.2222 79.8538 34.8742V21.5552C79.8538 19.7917 79.4328 19.142 77.7957 19.142H75.2933C73.9134 19.142 73.4457 19.4437 72.8142 20.9055L67.9497 32.0433C67.8795 32.2057 67.786 32.2521 67.6223 32.2521H67.3416C67.1779 32.2521 67.0844 32.2057 67.0142 32.0433L62.1496 20.9055C61.5182 19.4437 61.0504 19.142 59.6472 19.142Z" fill="white"/>
<path d="M101.004 19.142H90.7134C85.9891 19.142 84.1649 20.8127 84.1649 25.2678V29.2588C84.1649 33.714 85.9891 35.3846 90.7134 35.3846H101.004C101.355 35.3846 101.542 35.2222 101.542 34.8742V32.6698C101.542 32.3217 101.355 32.1593 101.004 32.1593H90.7835C88.3512 32.1593 87.673 31.44 87.673 29.0036V28.6091H100.887C101.238 28.6091 101.401 28.4467 101.401 28.0987V26.2656C101.401 25.9175 101.238 25.7551 100.887 25.7551H87.673V25.523C87.673 23.0866 88.3512 22.3673 90.7835 22.3673H101.004C101.355 22.3673 101.542 22.2049 101.542 21.8568V19.6525C101.542 19.3044 101.355 19.142 101.004 19.142Z" fill="white"/>
<defs>
<filter id="filter0_dddddd_782_4" x="0.610986" y="27.2264" width="14.778" height="14.778" filterUnits="userSpaceOnUse" color-interpolation-filters="sRGB">
<feFlood flood-opacity="0" result="BackgroundImageFix"/>
<feColorMatrix in="SourceAlpha" type="matrix" values="0 0 0 0 0 0 0 0 0 0 0 0 0 0 0 0 0 0 127 0" result="hardAlpha"/>
<feOffset/>
<feGaussianBlur stdDeviation="0.0624539"/>
<feColorMatrix type="matrix" values="0 0 0 0 0.901961 0 0 0 0 0 0 0 0 0 0.0627451 0 0 0 1 0"/>
<feBlend mode="normal" in2="BackgroundImageFix" result="effect1_dropShadow_782_4"/>
<feColorMatrix in="SourceAlpha" type="matrix" values="0 0 0 0 0 0 0 0 0 0 0 0 0 0 0 0 0 0 127 0" result="hardAlpha"/>
<feOffset/>
<feGaussianBlur stdDeviation="0.124908"/>
<feColorMatrix type="matrix" values="0 0 0 0 0.901961 0 0 0 0 0 0 0 0 0 0.0627451 0 0 0 1 0"/>
<feBlend mode="normal" in2="effect1_dropShadow_782_4" result="effect2_dropShadow_782_4"/>
<feColorMatrix in="SourceAlpha" type="matrix" values="0 0 0 0 0 0 0 0 0 0 0 0 0 0 0 0 0 0 127 0" result="hardAlpha"/>
<feOffset/>
<feGaussianBlur stdDeviation="0.437178"/>
<feColorMatrix type="matrix" values="0 0 0 0 0.901961 0 0 0 0 0 0 0 0 0 0.0627451 0 0 0 1 0"/>
<feBlend mode="normal" in2="effect2_dropShadow_782_4" result="effect3_dropShadow_782_4"/>
<feColorMatrix in="SourceAlpha" type="matrix" values="0 0 0 0 0 0 0 0 0 0 0 0 0 0 0 0 0 0 127 0" result="hardAlpha"/>
<feOffset/>
<feGaussianBlur stdDeviation="0.874355"/>
<feColorMatrix type="matrix" values="0 0 0 0 0.901961 0 0 0 0 0 0 0 0 0 0.0627451 0 0 0 1 0"/>
<feBlend mode="normal" in2="effect3_dropShadow_782_4" result="effect4_dropShadow_782_4"/>
<feColorMatrix in="SourceAlpha" type="matrix" values="0 0 0 0 0 0 0 0 0 0 0 0 0 0 0 0 0 0 127 0" result="hardAlpha"/>
<feOffset/>
<feGaussianBlur stdDeviation="1.49889"/>
<feColorMatrix type="matrix" values="0 0 0 0 0.901961 0 0 0 0 0 0 0 0 0 0.0627451 0 0 0 1 0"/>
<feBlend mode="normal" in2="effect4_dropShadow_782_4" result="effect5_dropShadow_782_4"/>
<feColorMatrix in="SourceAlpha" type="matrix" values="0 0 0 0 0 0 0 0 0 0 0 0 0 0 0 0 0 0 127 0" result="hardAlpha"/>
<feOffset/>
<feGaussianBlur stdDeviation="2.62307"/>
<feColorMatrix type="matrix" values="0 0 0 0 0.901961 0 0 0 0 0 0 0 0 0 0.0627451 0 0 0 1 0"/>
<feBlend mode="normal" in2="effect5_dropShadow_782_4" result="effect6_dropShadow_782_4"/>
<feBlend mode="normal" in="SourceGraphic" in2="effect6_dropShadow_782_4" result="shape"/>
</filter>
</defs>
</svg>
